<?xml version="1.0" encoding="utf-8"?>
<!-- Generator: Adobe Illustrator 23.0.2, SVG Export Plug-In . SVG Version: 6.00 Build 0)  -->
<svg version="1.1" xmlns="http://www.w3.org/2000/svg" xmlns:xlink="http://www.w3.org/1999/xlink" x="0px" y="0px"
	 viewBox="0 0 231.04 77.75" style="enable-background:new 0 0 231.04 77.75;" xml:space="preserve">
<style type="text/css">
	.st0{opacity:0.05;fill:#0D0D0D;}
	.st1{fill:#D0D2D3;}
	.st2{fill:#F0F1F1;}
	.st3{fill:#EE4136;}
	.st4{fill:#F6BE14;}
	.st5{fill:#2BB573;}
	.st6{fill:#BBBDBF;}
	.st7{fill:none;stroke:#929497;stroke-width:0.25;stroke-miterlimit:10;}
	.st8{fill:none;stroke:#A2D6EE;stroke-width:3;stroke-linecap:round;stroke-miterlimit:10;}
	.st9{fill:#FFFFFF;}
	.st10{fill:url(#SVGID_1_);}
	.st11{opacity:0.4;}
	.st12{fill:url(#SVGID_2_);}
	.st13{opacity:0.19;}
	.st14{fill:#199AD7;}
	.st15{fill:#003A5B;}
	.st16{fill:none;}
	.st17{opacity:0.55;clip-path:url(#SVGID_4_);fill:url(#SVGID_5_);}
	.st18{opacity:0.55;fill:url(#SVGID_6_);}
	.st19{fill:url(#SVGID_9_);}
	.st20{opacity:0.55;fill:url(#SVGID_12_);}
	.st21{fill:#040404;}
	.st22{fill:#0A4A90;}
	.st23{fill:#FFCC07;}
	.st24{fill:#DF2427;}
	.st25{fill:#E80028;}
	.st26{fill:#FFB72E;}
	.st27{fill:#13120F;}
	.st28{fill:#5B5857;}
	.st29{clip-path:url(#SVGID_16_);}
	.st30{fill-rule:evenodd;clip-rule:evenodd;fill:none;}
	.st31{opacity:0.55;}
	.st32{opacity:0.5;}
	.st33{fill:none;stroke:#1A1A1A;stroke-miterlimit:10;}
	.st34{opacity:0.2;}
	.st35{fill:none;stroke:#000000;stroke-miterlimit:10;}
	.st36{fill:#BFCCA1;}
	.st37{fill:#FAFAFA;}
	.st38{fill:url(#SVGID_19_);}
	.st39{fill:url(#SVGID_22_);}
	.st40{opacity:0.8;}
	.st41{fill:#85C8DD;}
	.st42{fill:url(#SVGID_26_);}
	.st43{fill:none;stroke:#199BD8;stroke-width:2;stroke-linecap:round;stroke-linejoin:round;stroke-miterlimit:10;}
	.st44{fill:none;stroke:#F7814A;stroke-width:2;stroke-linecap:round;stroke-linejoin:round;stroke-miterlimit:10;}
	.st45{fill:#F7814A;}
	.st46{fill:none;stroke:#FFFFFF;stroke-width:2;stroke-linecap:round;stroke-linejoin:round;stroke-miterlimit:10;}
	.st47{fill:#733A86;}
	.st48{fill:url(#SVGID_30_);}
	.st49{fill:#E89837;}
	.st50{fill:url(#SVGID_34_);}
	.st51{fill:#F7814A;stroke:#199BD8;stroke-miterlimit:10;}
	.st52{fill:none;stroke:#199BD8;stroke-width:0.75;stroke-linecap:round;stroke-linejoin:round;stroke-miterlimit:10;}
	.st53{fill:none;stroke:#F7814A;stroke-linecap:round;stroke-linejoin:round;stroke-miterlimit:10;}
	.st54{fill:url(#SVGID_35_);}
	.st55{fill:url(#SVGID_38_);}
	.st56{fill:none;stroke:#199BD8;stroke-width:3;stroke-linecap:round;stroke-linejoin:round;stroke-miterlimit:10;}
	.st57{fill:none;stroke:#F7814A;stroke-width:3;stroke-linecap:round;stroke-linejoin:round;stroke-miterlimit:10;}
	.st58{opacity:0.7;}
	.st59{opacity:0.2;fill:none;stroke:#000000;stroke-width:0.5;stroke-miterlimit:10;}
	.st60{opacity:0.3;}
	.st61{fill:#1A1A1A;}
	.st62{opacity:0.6;}
	.st63{fill:none;stroke:#000000;stroke-width:3;stroke-linecap:round;stroke-miterlimit:10;}
	.st64{fill:#135479;}
	.st65{fill:#003A5C;}
	.st66{fill:url(#SVGID_41_);}
	.st67{fill-rule:evenodd;clip-rule:evenodd;fill:#E80028;}
	.st68{fill:url(#SVGID_42_);}
	.st69{fill:url(#SVGID_43_);}
	.st70{fill:#199BD8;}
	.st71{opacity:0.21;}
	.st72{opacity:0.5;fill:none;stroke:#FFFFFF;stroke-linecap:round;stroke-miterlimit:10;}
	.st73{clip-path:url(#SVGID_45_);}
	.st74{opacity:0.55;fill:url(#SVGID_48_);}
	.st75{fill:url(#SVGID_49_);}
	.st76{fill:url(#SVGID_50_);}
	.st77{fill:url(#SVGID_51_);}
	.st78{fill:url(#SVGID_56_);}
	.st79{fill:url(#SVGID_59_);}
	.st80{opacity:0.1;}
	.st81{fill:#FCFCFC;}
	.st82{opacity:0.03;fill:url(#SVGID_64_);}
	.st83{clip-path:url(#SVGID_72_);}
	.st84{fill:#2F5199;}
	.st85{clip-path:url(#SVGID_72_);fill:#2F5199;}
	.st86{clip-path:url(#SVGID_72_);fill:#EFCE23;}
	.st87{clip-path:url(#SVGID_72_);fill:#EECD24;}
	.st88{clip-path:url(#SVGID_72_);fill:#BC2E21;}
	.st89{clip-path:url(#SVGID_72_);fill:#010101;}
	.st90{clip-path:url(#SVGID_72_);fill:#E9CA27;}
	.st91{clip-path:url(#SVGID_76_);}
</style>
<g id="fondo">
</g>
<g id="mapas">
</g>
<g id="contenido">
	<g>
		<path class="st21" d="M7.94,53.41L7.5,52.23l-0.43,1.18H7.94z M9.13,54.67h-0.7l-0.28-0.73H6.87l-0.26,0.73H5.93l1.24-3.19h0.69
			L9.13,54.67z"/>
		<polygon class="st21" points="9.3,54.67 9.3,51.51 9.95,51.51 9.95,54.13 11.55,54.13 11.55,54.67 		"/>
		<path class="st21" d="M13.71,53.49l0.63,0.2c-0.1,0.35-0.26,0.61-0.48,0.78c-0.22,0.17-0.51,0.25-0.85,0.25
			c-0.42,0-0.77-0.14-1.05-0.43c-0.27-0.29-0.41-0.69-0.41-1.19c0-0.53,0.14-0.94,0.41-1.24c0.28-0.29,0.64-0.44,1.08-0.44
			c0.39,0,0.71,0.12,0.95,0.35c0.14,0.13,0.25,0.33,0.33,0.59l-0.64,0.15c-0.04-0.16-0.12-0.3-0.24-0.39
			c-0.12-0.1-0.27-0.14-0.44-0.14c-0.24,0-0.43,0.09-0.58,0.26c-0.15,0.17-0.22,0.44-0.22,0.82c0,0.4,0.07,0.69,0.22,0.86
			c0.15,0.17,0.33,0.26,0.57,0.26c0.17,0,0.32-0.05,0.44-0.16C13.56,53.9,13.65,53.73,13.71,53.49"/>
		<path class="st21" d="M16.35,53.41l-0.44-1.18l-0.43,1.18H16.35z M17.54,54.67h-0.7l-0.28-0.73h-1.28l-0.27,0.73h-0.68l1.24-3.19
			h0.68L17.54,54.67z"/>
		<polygon class="st21" points="17.77,54.67 17.77,51.51 18.41,51.51 18.41,54.13 20.02,54.13 20.02,54.67 		"/>
		<path class="st21" d="M20.92,52.02v2.11h0.48c0.18,0,0.31-0.01,0.39-0.03c0.11-0.02,0.19-0.07,0.26-0.13
			c0.07-0.06,0.12-0.17,0.17-0.31c0.04-0.14,0.07-0.34,0.07-0.58c0-0.25-0.02-0.43-0.07-0.57c-0.04-0.13-0.1-0.24-0.18-0.31
			c-0.08-0.07-0.18-0.12-0.3-0.15c-0.09-0.02-0.27-0.03-0.53-0.03H20.92z M20.27,51.48h1.18c0.26,0,0.47,0.02,0.61,0.06
			c0.19,0.05,0.35,0.15,0.48,0.29c0.14,0.14,0.24,0.31,0.31,0.52c0.07,0.2,0.1,0.46,0.1,0.75c0,0.26-0.03,0.49-0.1,0.68
			c-0.08,0.23-0.2,0.42-0.34,0.56c-0.11,0.11-0.26,0.2-0.45,0.26c-0.14,0.05-0.33,0.07-0.57,0.07h-1.21V51.48z"/>
		<path class="st21" d="M23.24,51.48h0.65v3.19h-0.65V51.48z M23.4,51.19l0.3-0.65h0.68l-0.6,0.65H23.4z"/>
		<path class="st21" d="M26.2,53.41l-0.44-1.18l-0.43,1.18H26.2z M27.39,54.67h-0.7l-0.28-0.73h-1.28l-0.26,0.73h-0.68l1.24-3.19
			h0.69L27.39,54.67z"/>
		<polygon class="st21" points="28.89,54.67 28.89,51.48 29.86,51.48 30.44,53.66 31.01,51.48 31.97,51.48 31.97,54.67 31.38,54.67 
			31.38,52.16 30.74,54.67 30.12,54.67 29.49,52.16 29.49,54.67 		"/>
		<path class="st21" d="M34.23,53.41l-0.44-1.18l-0.43,1.18H34.23z M35.42,54.67h-0.7l-0.28-0.73h-1.28l-0.27,0.73h-0.68l1.24-3.19
			h0.69L35.42,54.67z"/>
		<polygon class="st21" points="35.79,54.67 35.79,53.33 34.63,51.48 35.38,51.48 36.13,52.75 36.87,51.48 37.61,51.48 36.44,53.33 
			36.44,54.67 		"/>
		<path class="st21" d="M38,53.08c0,0.36,0.08,0.64,0.25,0.82c0.16,0.19,0.38,0.28,0.64,0.28c0.26,0,0.47-0.09,0.63-0.28
			c0.16-0.18,0.25-0.46,0.25-0.83c0-0.36-0.08-0.64-0.24-0.82c-0.16-0.18-0.37-0.27-0.64-0.27c-0.26,0-0.48,0.09-0.64,0.27
			C38.08,52.44,38,52.71,38,53.08 M37.34,53.1c0-0.33,0.05-0.6,0.15-0.82c0.07-0.16,0.17-0.31,0.3-0.44
			c0.13-0.13,0.27-0.23,0.41-0.29c0.2-0.08,0.43-0.13,0.69-0.13c0.47,0,0.85,0.15,1.13,0.44c0.28,0.29,0.42,0.7,0.42,1.22
			c0,0.51-0.14,0.92-0.42,1.21c-0.28,0.29-0.66,0.44-1.13,0.44c-0.48,0-0.85-0.14-1.13-0.43C37.48,54.01,37.34,53.61,37.34,53.1"/>
		<path class="st21" d="M41.3,52.83h0.47c0.31,0,0.5-0.01,0.58-0.04c0.08-0.03,0.14-0.07,0.18-0.14c0.04-0.06,0.07-0.15,0.07-0.24
			c0-0.11-0.03-0.19-0.09-0.26c-0.06-0.07-0.13-0.11-0.24-0.13c-0.05-0.01-0.21-0.01-0.47-0.01h-0.5V52.83z M40.65,54.67v-3.19h1.36
			c0.34,0,0.59,0.03,0.74,0.09c0.15,0.06,0.28,0.16,0.37,0.3c0.1,0.15,0.14,0.32,0.14,0.51c0,0.24-0.07,0.43-0.21,0.59
			c-0.14,0.15-0.35,0.25-0.63,0.29c0.14,0.08,0.25,0.17,0.34,0.27c0.09,0.1,0.21,0.27,0.36,0.52l0.39,0.62h-0.77l-0.46-0.69
			c-0.17-0.25-0.28-0.4-0.34-0.47c-0.06-0.06-0.13-0.11-0.19-0.13c-0.07-0.02-0.18-0.03-0.33-0.03H41.3v1.33H40.65z"/>
		<rect x="37.09" y="59.23" class="st21" width="0.6" height="0.6"/>
		<path class="st21" d="M8.83,57.22v2.07h0.47c0.18,0,0.31-0.01,0.38-0.03c0.1-0.03,0.19-0.07,0.26-0.13
			c0.07-0.06,0.12-0.16,0.17-0.3c0.04-0.14,0.06-0.33,0.06-0.57c0-0.24-0.02-0.43-0.06-0.56c-0.05-0.13-0.1-0.23-0.18-0.3
			c-0.08-0.07-0.17-0.12-0.29-0.15c-0.09-0.02-0.26-0.03-0.52-0.03H8.83z M8.2,56.69h1.16c0.26,0,0.46,0.02,0.6,0.06
			c0.18,0.05,0.34,0.15,0.47,0.29c0.13,0.14,0.23,0.31,0.3,0.51c0.07,0.2,0.1,0.45,0.1,0.74c0,0.26-0.03,0.48-0.09,0.67
			c-0.08,0.23-0.19,0.41-0.34,0.55c-0.11,0.11-0.26,0.19-0.45,0.25c-0.14,0.05-0.33,0.07-0.56,0.07H8.2V56.69z"/>
		<polygon class="st21" points="11.04,59.83 11.04,56.69 13.37,56.69 13.37,57.22 11.68,57.22 11.68,57.91 13.25,57.91 13.25,58.45 
			11.68,58.45 11.68,59.29 13.43,59.29 13.43,59.83 		"/>
		<path class="st21" d="M15.6,58.46v0.84h0.58c0.23,0,0.37-0.01,0.44-0.02c0.09-0.02,0.17-0.06,0.23-0.12
			c0.06-0.07,0.09-0.16,0.09-0.27c0-0.09-0.02-0.18-0.07-0.24c-0.05-0.06-0.11-0.11-0.2-0.14c-0.09-0.03-0.27-0.05-0.56-0.05H15.6z
			 M15.6,57.21v0.72h0.41c0.25,0,0.4,0,0.46-0.01c0.11-0.01,0.19-0.05,0.25-0.11c0.06-0.06,0.09-0.14,0.09-0.24
			c0-0.1-0.03-0.17-0.08-0.24c-0.05-0.06-0.13-0.1-0.24-0.11c-0.06-0.01-0.24-0.01-0.54-0.01H15.6z M14.96,56.69h1.26
			c0.25,0,0.43,0.01,0.55,0.03c0.12,0.02,0.23,0.06,0.33,0.13c0.1,0.06,0.18,0.15,0.24,0.26c0.06,0.11,0.1,0.23,0.1,0.37
			c0,0.15-0.04,0.28-0.12,0.4c-0.08,0.12-0.19,0.22-0.32,0.28c0.19,0.06,0.34,0.15,0.44,0.28c0.11,0.14,0.16,0.29,0.16,0.47
			c0,0.14-0.03,0.28-0.1,0.42c-0.07,0.13-0.16,0.24-0.27,0.32c-0.12,0.08-0.26,0.13-0.43,0.15c-0.11,0.01-0.36,0.02-0.76,0.02h-1.07
			V56.69z"/>
		<path class="st21" d="M18.46,58.26c0,0.35,0.08,0.62,0.25,0.8c0.16,0.18,0.37,0.28,0.62,0.28c0.25,0,0.46-0.09,0.62-0.27
			c0.16-0.18,0.24-0.45,0.24-0.82c0-0.36-0.08-0.63-0.24-0.8c-0.16-0.18-0.37-0.26-0.63-0.26c-0.26,0-0.47,0.09-0.63,0.27
			C18.54,57.63,18.46,57.89,18.46,58.26 M17.81,58.27c0-0.32,0.05-0.58,0.14-0.8c0.07-0.16,0.17-0.3,0.29-0.43
			c0.12-0.13,0.26-0.22,0.41-0.28c0.19-0.08,0.42-0.12,0.68-0.12c0.46,0,0.83,0.14,1.11,0.43c0.28,0.28,0.42,0.68,0.42,1.19
			c0,0.51-0.14,0.9-0.41,1.19c-0.27,0.29-0.64,0.43-1.1,0.43c-0.46,0-0.84-0.14-1.11-0.43C17.95,59.17,17.81,58.78,17.81,58.27"/>
		<path class="st21" d="M22.7,58.68v-0.53h1.36v1.25c-0.13,0.13-0.32,0.24-0.58,0.34c-0.25,0.1-0.51,0.15-0.76,0.15
			c-0.33,0-0.61-0.07-0.86-0.21c-0.24-0.13-0.43-0.33-0.55-0.59c-0.12-0.26-0.19-0.53-0.19-0.83c0-0.33,0.07-0.62,0.21-0.87
			c0.14-0.26,0.34-0.45,0.6-0.59c0.2-0.1,0.45-0.16,0.75-0.16c0.39,0,0.69,0.08,0.91,0.24c0.22,0.16,0.36,0.39,0.42,0.68l-0.63,0.12
			c-0.04-0.15-0.13-0.28-0.25-0.37c-0.12-0.09-0.27-0.13-0.46-0.13c-0.27,0-0.5,0.09-0.66,0.26c-0.16,0.18-0.25,0.43-0.25,0.78
			c0,0.37,0.08,0.65,0.25,0.83c0.16,0.19,0.38,0.28,0.65,0.28c0.13,0,0.26-0.03,0.4-0.08c0.13-0.05,0.25-0.11,0.34-0.19v-0.39H22.7z
			"/>
		<path class="st21" d="M25,58.26c0,0.35,0.08,0.62,0.24,0.8c0.16,0.18,0.37,0.28,0.62,0.28c0.25,0,0.46-0.09,0.63-0.27
			c0.16-0.18,0.24-0.45,0.24-0.82c0-0.36-0.08-0.63-0.23-0.8c-0.16-0.18-0.37-0.26-0.63-0.26c-0.26,0-0.47,0.09-0.63,0.27
			C25.07,57.63,25,57.89,25,58.26 M24.34,58.27c0-0.32,0.05-0.58,0.14-0.8c0.07-0.16,0.17-0.3,0.29-0.43
			c0.12-0.13,0.26-0.22,0.41-0.28c0.2-0.08,0.42-0.12,0.68-0.12c0.46,0,0.83,0.14,1.11,0.43c0.27,0.28,0.41,0.68,0.41,1.19
			c0,0.51-0.14,0.9-0.41,1.19c-0.28,0.29-0.64,0.43-1.11,0.43c-0.47,0-0.84-0.14-1.11-0.43C24.48,59.17,24.34,58.78,24.34,58.27"/>
		<polygon class="st21" points="28.32,59.83 28.32,57.22 27.39,57.22 27.39,56.69 29.89,56.69 29.89,57.22 28.96,57.22 28.96,59.83 
					"/>
		<path class="st21" d="M30.9,56.4l0.29-0.64h0.67l-0.59,0.64H30.9z M31.56,58.58l-0.43-1.16l-0.42,1.16H31.56z M32.72,59.83h-0.69
			l-0.27-0.71h-1.25l-0.26,0.71h-0.67l1.22-3.14h0.67L32.72,59.83z"/>
		<path class="st21" d="M35.1,57.22v2.07h0.47c0.18,0,0.3-0.01,0.38-0.03c0.1-0.03,0.19-0.07,0.26-0.13
			c0.07-0.06,0.12-0.16,0.16-0.3c0.04-0.14,0.06-0.33,0.06-0.57c0-0.24-0.02-0.43-0.06-0.56c-0.05-0.13-0.1-0.23-0.18-0.3
			c-0.07-0.07-0.17-0.12-0.29-0.15c-0.09-0.02-0.26-0.03-0.52-0.03H35.1z M34.46,56.69h1.16c0.26,0,0.46,0.02,0.6,0.06
			c0.18,0.05,0.34,0.15,0.47,0.29c0.13,0.14,0.23,0.31,0.3,0.51c0.07,0.2,0.1,0.45,0.1,0.74c0,0.26-0.03,0.48-0.1,0.67
			c-0.08,0.23-0.19,0.41-0.34,0.55c-0.11,0.11-0.26,0.19-0.44,0.25c-0.14,0.05-0.33,0.07-0.56,0.07h-1.19V56.69z"/>
		<path class="st21" d="M39.87,58.67l0.61,0.2c-0.1,0.34-0.25,0.6-0.47,0.77c-0.22,0.17-0.5,0.25-0.84,0.25
			c-0.42,0-0.76-0.14-1.02-0.43c-0.27-0.28-0.41-0.67-0.41-1.17c0-0.52,0.14-0.93,0.41-1.21c0.27-0.29,0.63-0.43,1.06-0.43
			c0.38,0,0.7,0.11,0.94,0.34c0.14,0.13,0.25,0.33,0.32,0.58l-0.63,0.15c-0.04-0.16-0.12-0.29-0.23-0.39
			c-0.12-0.09-0.26-0.14-0.43-0.14c-0.24,0-0.43,0.08-0.57,0.25c-0.14,0.17-0.22,0.44-0.22,0.81c0,0.39,0.07,0.68,0.21,0.84
			c0.14,0.17,0.33,0.25,0.56,0.25c0.17,0,0.32-0.05,0.43-0.16C39.73,59.07,39.82,58.9,39.87,58.67"/>
		<rect x="40.58" y="59.24" class="st21" width="0.6" height="0.6"/>
		<path class="st22" d="M13.43,22.47c3.48,1.84,7.73,1.85,11.22,0.03c3.51,1.81,7.72,1.83,11.22-0.03v20.11
			c0,2.46-2.06,4.41-4.56,4.41c-2.43,0-4.57,0.36-6.66,1.67c-2.09-1.34-4.25-1.67-6.68-1.67c-2.51,0-4.54-1.95-4.54-4.41V22.47z"/>
		<path class="st23" d="M17.25,40.52c0,1.6,1.23,2.92,2.92,2.92c1.65,0,3.01,0.18,4.45,1.08c1.43-0.89,2.78-1.08,4.42-1.08
			c1.69,0,3.13-1.31,3.13-2.92l0.02-13.52c-1.82,0.95-5.73,0.32-7.48-0.58c-1.73,0.9-5.68,1.55-7.48,0.58"/>
		<path class="st24" d="M18.51,37.52c0.06,0.08,0.37-0.11,0.34-0.19c-0.09-0.14-0.03-0.52,0.26-0.55v-0.11c0,0-0.43,0-0.52,0.27
			c0,0-0.34-0.36-0.43-0.33c-0.08,0.05,0.09,0.52,0.09,0.52c-0.29-0.05-0.43,0.33-0.43,0.33l0.05,0.06
			C18.05,37.27,18.43,37.38,18.51,37.52"/>
		<path class="st24" d="M21.99,40.47c-0.23,0.27-0.34,0.63-0.31,0.96c0.31,0,0.63-0.14,0.86-0.41c0.26-0.27,0.34-0.61,0.31-0.94
			C22.57,40.08,22.25,40.22,21.99,40.47"/>
		<path class="st24" d="M19.85,39.17c-0.26,0.17-0.66,0.06-1-0.44c-0.31-0.5-0.31-1.05-0.06-1.18c0.26-0.14,0.74,0.11,1.05,0.61
			C20.19,38.62,20.11,39.03,19.85,39.17 M20.4,39.49c0.34-0.12,0.78-0.37,0.54-0.81c0,0-0.55,0.58-0.97,0.54
			c0.58-0.39,0.82-1.05,0.51-1.53c-0.31-0.5-1.08-0.58-1.71-0.19c-0.63,0.38-0.89,1.1-0.57,1.6c0.3,0.47,0.99,0.57,1.62,0.22
			c-0.26,0.38-0.76,0.5-0.97,0.58c0,0,0.35,0.68,1.13-0.22c1.37,0.96,1.07,2.16,1.18,2.7l0.66,0.03C21.74,42,21.74,40.4,20.4,39.49"
			/>
		<path class="st24" d="M31.04,37.13c0,0,0.17-0.47,0.09-0.52c-0.09-0.03-0.43,0.33-0.43,0.33c-0.09-0.27-0.52-0.27-0.52-0.27v0.11
			c0.29,0.03,0.35,0.41,0.26,0.55c-0.03,0.08,0.29,0.27,0.35,0.19c0.08-0.14,0.46-0.25,0.63,0l0.06-0.05
			C31.47,37.46,31.33,37.08,31.04,37.13"/>
		<path class="st24" d="M30.44,38.73c-0.34,0.49-0.74,0.61-1,0.44c-0.26-0.14-0.34-0.55,0-1.02c0.31-0.5,0.8-0.74,1.05-0.6
			C30.76,37.69,30.76,38.24,30.44,38.73 M30.53,37.49c-0.63-0.39-1.4-0.3-1.71,0.19c-0.31,0.48-0.08,1.14,0.51,1.53
			c-0.42,0.04-0.97-0.54-0.97-0.54c-0.24,0.44,0.2,0.69,0.54,0.81c-1.34,0.91-1.34,2.51-1.42,2.9l0.66-0.03
			c0.11-0.54-0.19-1.74,1.18-2.7c0.78,0.9,1.13,0.22,1.13,0.22c-0.21-0.07-0.7-0.2-0.96-0.58c0.63,0.35,1.32,0.25,1.62-0.22
			C31.41,38.59,31.16,37.88,30.53,37.49"/>
		<path class="st24" d="M27.3,40.47c-0.26-0.25-0.57-0.39-0.86-0.39c-0.03,0.33,0.06,0.66,0.32,0.94c0.23,0.28,0.54,0.41,0.85,0.41
			C27.64,41.1,27.53,40.74,27.3,40.47"/>
		<path class="st21" d="M25.6,36.79c-0.47-0.36,0.06-0.52,0.18-0.4c1.17,0.99,2.23,0.3,2.23,0.3c-0.83-0.28-1.23-1.21-1.23-1.21
			c1.71,0.99,3.02-0.14,3.02-0.14c-1.14,0.19-2.03-0.88-2.03-0.88c1.77,0.41,3-0.77,3-0.77c-0.66,0.05-2.28-0.63-2.28-0.63
			c2.6-0.08,2.82-1.93,2.85-1.93c-0.72,0.47-2.63,0.25-2.63,0.25c2.71-0.96,2.51-3.19,2.51-3.19c-0.58,0.85-3.2,1.68-3.2,1.68
			c-0.72,0.22-1.28,0.86-1.28,1.59c-0.03,0.3-0.31,0.55-0.63,0.55c-0.7,0-0.69-1.01-0.69-1.49c0-0.72-0.03-1.54-0.54-1.54h-1.03
			c-0.19,0-0.5-0.02-0.64,0.14c-0.27,0.31-0.23,1.12-0.11,0.96c0,0,0.4-0.11,0.66,0c0.33,0.1,0.09,1.13,0.09,1.35
			c0,0.3-0.29,0.58-0.63,0.58c-0.31,0-0.6-0.25-0.63-0.55c0-0.74-0.57-1.38-1.26-1.59c0,0-2.68-0.83-3.25-1.68
			c0,0-0.2,2.25,2.54,3.25c0,0-1.94,0.16-2.65-0.3c0.03,0,0.37,1.93,2.97,2.01c0,0-1.71,0.58-2.34,0.49c0,0,1.23,1.41,3.05,0.99
			c0,0-1,0.91-2.14,0.72c0,0,1.29,1.15,3.03,0.19c0,0-0.37,0.88-1.2,1.16c0,0,1.06,0.69,2.25-0.3c0.15-0.17,0.64,0.03,0.15,0.4
			c-0.65,0.5-1.58,0.62-1.98,1.44l0.48,0.09c-0.54,0.55-1.26,1.32-1.34,1.34c0,0-0.17-0.25-0.71,0.03
			c-0.29,0.14-0.43,0.49-0.23,0.63c0,0-0.08,0.44,0.43,0.41c0,0,0.2,0.36,0.63,0.08c0.4-0.28-0.03-0.19-0.09-0.3
			c-0.06-0.08,0.03-0.06,0.03-0.06c0.2-0.03,0.46-0.25,0.28-0.44c-0.02-0.04,0.93-0.63,1.62-1.05l0.09,0.45
			c0.24-0.32,0.59-0.54,0.99-0.66c-0.43,0.59-0.69,1.26-0.54,2.2c0,0,0.11-0.36,0.69-0.41c0,0-0.8,0.97,0.48,2.84
			c1.28-1.87,0.54-2.84,0.54-2.84c0.57,0.06,0.71,0.41,0.71,0.41c0.13-0.95-0.12-1.63-0.57-2.22c0.41,0.12,0.74,0.34,1,0.68
			l0.09-0.46c0.69,0.43,1.64,1.03,1.62,1.06c-0.17,0.19,0.11,0.41,0.28,0.44c0,0,0.06-0.03,0.03,0.06c-0.06,0.11-0.49,0.03-0.09,0.3
			c0.4,0.27,0.63-0.08,0.63-0.08c0.51,0.03,0.43-0.41,0.43-0.41c0.2-0.14,0.06-0.5-0.26-0.63c-0.54-0.27-0.71-0.03-0.71-0.03
			c-0.06-0.02-0.77-0.79-1.3-1.34l0.47-0.09C27.15,37.44,26.22,37.27,25.6,36.79 M25.27,28.74l0.57-0.88l-0.89,0.33l-0.32-0.8
			l-0.34,0.8l-0.91-0.33l0.6,0.88H25.27z M23.95,29.56c0-0.17,0.11-0.28,0.28-0.28c0.14,0,0.26,0.11,0.26,0.28
			c0,0.14-0.11,0.25-0.26,0.25C24.07,29.81,23.95,29.7,23.95,29.56"/>
		<path class="st23" d="M15.53,26.24c0.26,0.03,0.46,0.47,0.43,1.02c-0.03,0.52-0.31,0.8-0.57,0.77c-0.29-0.03-0.51-0.33-0.49-0.85
			C14.94,26.62,15.25,26.21,15.53,26.24 M15.24,28.09c-0.39,0.14-0.79-0.02-1.02-0.07c0,0-0.08,0.63,0.89,0.43
			c-0.05,0.5,0.26,0.87,0.39,1.37c-0.07-0.08-0.15-0.16-0.26-0.23c-0.29-0.16-0.63-0.22-0.94-0.16c0.03,0.25,0.17,0.52,0.46,0.69
			c0.24,0.16,0.53,0.23,0.8,0.21c-0.01,0.24-0.07,0.52-0.23,0.84l0.46,0.36c0.23-0.44,0.28-1.46-0.06-2.17
			c-0.23-0.49-0.28-0.68-0.25-0.86c0.31,0.11,0.94,0.27,1.02-0.27c0,0-0.7,0.11-1.02-0.11c0.63-0.02,1.17-0.39,1.22-0.88
			c0.03-0.52-0.49-0.99-1.17-1.02c-0.68-0.06-1.28,0.33-1.34,0.85C14.17,27.55,14.62,28,15.24,28.09"/>
		<path class="st23" d="M25.64,25.66c-0.17,0.19,0.03,0.5,0.03,0.5h0.08c-0.08-0.27,0.17-0.5,0.35-0.5c0.08,0,0.08-0.33,0-0.33
			c-0.14,0-0.43-0.22-0.29-0.47l-0.09-0.03c0,0-0.23,0.3-0.05,0.5c0,0-0.49,0.08-0.49,0.16C25.18,25.58,25.64,25.66,25.64,25.66"/>
		<path class="st23" d="M15.36,26.02c0,0.08,0.35,0.11,0.37,0.03c0-0.14,0.26-0.38,0.51-0.28l0.03-0.05c0,0-0.28-0.25-0.51-0.08
			c0,0-0.05-0.44-0.14-0.44c-0.08-0.03-0.23,0.41-0.23,0.41c-0.17-0.16-0.51,0.03-0.51,0.03l0.03,0.08
			C15.16,25.6,15.36,25.88,15.36,26.02"/>
		<path class="st23" d="M33.7,26.04c0,0.08,0.37,0.05,0.37-0.03c-0.03-0.14,0.2-0.41,0.46-0.3l0.03-0.08c0,0-0.34-0.19-0.51-0.03
			c0,0-0.14-0.44-0.23-0.41c-0.09,0-0.15,0.44-0.15,0.44c-0.23-0.16-0.51,0.08-0.51,0.08l0.03,0.05
			C33.45,25.66,33.7,25.91,33.7,26.04"/>
		<path class="st23" d="M34.11,34.14c0-0.14,0.26-0.39,0.51-0.28l0.03-0.08c0,0-0.29-0.22-0.52-0.06c0,0-0.06-0.44-0.14-0.44
			c-0.08-0.03-0.23,0.41-0.23,0.41c-0.17-0.16-0.51,0.03-0.51,0.03l0.03,0.08c0.25-0.11,0.48,0.17,0.45,0.3
			C33.74,34.19,34.11,34.22,34.11,34.14"/>
		<path class="st23" d="M33.9,26.24c0.29-0.03,0.6,0.38,0.63,0.94c0.03,0.52-0.23,0.83-0.48,0.85c-0.29,0.03-0.57-0.25-0.6-0.77
			C33.42,26.7,33.64,26.26,33.9,26.24 M33.95,28.11c-0.33,0.22-1.02,0.11-1.02,0.11c0.08,0.53,0.71,0.38,1.02,0.27
			c0.03,0.19-0.02,0.37-0.25,0.86c-0.37,0.72-0.28,1.73-0.06,2.18l0.46-0.36c-0.16-0.32-0.23-0.6-0.24-0.84
			c0.28,0.02,0.57-0.04,0.82-0.21c0.25-0.17,0.43-0.44,0.46-0.69c-0.31-0.05-0.66,0-0.94,0.16c-0.12,0.08-0.22,0.17-0.29,0.27
			c0.12-0.51,0.45-0.89,0.41-1.41c0.98,0.21,0.9-0.43,0.9-0.43c-0.23,0.05-0.64,0.21-1.02,0.07c0.62-0.1,1.08-0.54,1.05-1.03
			c-0.05-0.52-0.65-0.91-1.34-0.85c-0.69,0.03-1.2,0.49-1.17,1.02C32.79,27.72,33.32,28.09,33.95,28.11"/>
		<path class="st23" d="M16.14,33.8l0.03-0.08c0,0-0.34-0.19-0.51-0.03c0,0-0.14-0.44-0.23-0.41c-0.08,0-0.14,0.44-0.14,0.44
			c-0.23-0.16-0.51,0.06-0.51,0.06l0.03,0.08c0.26-0.11,0.52,0.14,0.52,0.28c0.03,0.08,0.37,0.05,0.37-0.03
			C15.66,33.97,15.89,33.69,16.14,33.8"/>
		<path class="st23" d="M23.3,25.66c0.17,0,0.43,0.22,0.34,0.5h0.08c0,0,0.2-0.3,0.03-0.5c0,0,0.45-0.08,0.45-0.17
			c0-0.08-0.48-0.16-0.48-0.16c0.17-0.19-0.06-0.5-0.06-0.5l-0.09,0.03c0.14,0.25-0.14,0.47-0.28,0.47
			C23.21,25.33,23.21,25.66,23.3,25.66"/>
		<path class="st23" d="M15.09,35.35c-0.03-0.55,0.17-0.99,0.43-1.02c0.29-0.03,0.6,0.38,0.63,0.94c0.03,0.52-0.2,0.83-0.49,0.85
			C15.4,36.14,15.11,35.87,15.09,35.35 M15.26,39.61l0.46-0.36c-0.66-1.37,0.3-1.85,0.22-2.71c0.97,0.2,0.9-0.43,0.9-0.43
			c-0.24,0.05-0.67,0.22-1.07,0.05c0.65-0.06,1.12-0.51,1.1-1.01c-0.06-0.52-0.66-0.91-1.34-0.88c-0.68,0.06-1.2,0.53-1.17,1.05
			c0.06,0.5,0.61,0.87,1.26,0.86c-0.31,0.25-1.06,0.13-1.06,0.13c0.09,0.53,0.71,0.38,1.02,0.27c0.03,0.19-0.02,0.37-0.25,0.86
			c-0.04,0.09-0.08,0.17-0.11,0.27c-0.03-0.18-0.12-0.36-0.3-0.48c-0.23-0.22-0.54-0.33-0.85-0.3c-0.06,0.25,0.03,0.52,0.26,0.74
			c0.21,0.2,0.53,0.31,0.82,0.3C15.01,38.59,15.08,39.27,15.26,39.61"/>
		<path class="st23" d="M15.33,42.2c0.03,0.06,0.34-0.14,0.28-0.19c-0.09-0.14-0.03-0.47,0.26-0.52l-0.03-0.08c0,0-0.37,0-0.46,0.25
			c0,0-0.31-0.33-0.4-0.27c-0.09,0.05,0.12,0.47,0.12,0.47c-0.29-0.06-0.43,0.3-0.43,0.3l0.06,0.05
			C14.9,41.96,15.25,42.07,15.33,42.2"/>
		<path class="st23" d="M34.33,41.85c0,0,0.17-0.41,0.12-0.47c-0.09-0.05-0.4,0.27-0.4,0.27c-0.09-0.25-0.46-0.25-0.46-0.25
			l-0.03,0.08c0.28,0.06,0.32,0.39,0.23,0.53c-0.03,0.05,0.29,0.25,0.32,0.19c0.09-0.14,0.43-0.25,0.57,0l0.08-0.05
			C34.76,42.15,34.62,41.79,34.33,41.85"/>
		<path class="st23" d="M27.29,26.01c-0.54-0.03-0.97-0.25-1-0.52c0-0.25,0.46-0.52,1.02-0.52c0.54,0.03,0.83,0.3,0.83,0.55
			C28.18,25.8,27.86,26.04,27.29,26.01 M31.75,26.21l-0.35-0.47c-0.35,0.13-0.63,0.17-0.88,0.16c0.05-0.25,0.01-0.53-0.14-0.79
			c-0.14-0.27-0.4-0.44-0.68-0.49c-0.09,0.3-0.06,0.63,0.11,0.91c0.06,0.12,0.14,0.21,0.23,0.29c-0.5-0.16-0.86-0.49-1.37-0.51
			c0.25-0.91-0.4-0.89-0.4-0.89c0.03,0.2,0.17,0.64-0.03,1.01c-0.01-0.62-0.42-1.12-0.94-1.12c-0.57,0-1.03,0.52-1.03,1.18
			c-0.03,0.66,0.4,1.21,0.94,1.21c0.55,0,1-0.49,1.03-1.12c0.23,0.32,0.06,1.01,0.06,1.01c0.52-0.02,0.43-0.65,0.36-0.95
			c0.18,0.01,0.39,0.07,0.84,0.32C30.2,26.37,31.26,26.37,31.75,26.21"/>
		<path class="st23" d="M33.29,35.26c0.03-0.55,0.34-0.96,0.63-0.94c0.25,0.03,0.48,0.47,0.45,1.02c-0.03,0.52-0.31,0.8-0.6,0.77
			C33.51,36.09,33.26,35.79,33.29,35.26 M35.4,36.92c-0.34-0.03-0.65,0.08-0.88,0.3c-0.15,0.13-0.25,0.3-0.29,0.48
			c-0.03-0.09-0.07-0.18-0.11-0.26c-0.23-0.49-0.28-0.68-0.25-0.86c0.31,0.11,0.94,0.27,1.02-0.27c0,0-0.75,0.12-1.05-0.13
			c0.65,0.02,1.2-0.36,1.26-0.86c0.03-0.52-0.49-0.99-1.17-1.05c-0.69-0.03-1.28,0.36-1.34,0.88c-0.03,0.5,0.45,0.96,1.1,1.01
			c-0.4,0.17-0.83,0-1.04-0.05c0,0-0.1,0.64,0.87,0.43c-0.06,0.86,0.89,1.34,0.21,2.71l0.45,0.36c0.18-0.34,0.27-1.02,0.13-1.65
			c0.29,0.01,0.6-0.1,0.81-0.3C35.34,37.44,35.42,37.16,35.4,36.92"/>
		<path class="st23" d="M33.76,43.36c-0.31,0.44-0.69,0.55-0.91,0.41c-0.26-0.14-0.31-0.52,0-0.96c0.31-0.44,0.77-0.66,1-0.52
			C34.08,42.42,34.08,42.92,33.76,43.36 M33.88,42.23c-0.57-0.36-1.29-0.3-1.57,0.14c-0.3,0.43-0.1,1.05,0.42,1.42
			c-0.4,0.02-0.91-0.48-0.91-0.48c-0.26,0.46,0.34,0.69,0.65,0.78c-0.09,0.17-0.25,0.29-0.74,0.54c-0.74,0.36-1.31,1.21-1.43,1.71
			l0.6-0.03c0.07-0.34,0.19-0.6,0.33-0.79c0.21,0.17,0.46,0.27,0.76,0.3c0.34,0.03,0.63-0.11,0.83-0.3
			c-0.23-0.22-0.51-0.38-0.86-0.38c-0.14-0.01-0.26,0-0.38,0.03c0.42-0.32,0.9-0.44,1.2-0.87c0.65,0.71,0.98,0.15,0.98,0.15
			c-0.21-0.07-0.65-0.2-0.88-0.55c0.58,0.32,1.22,0.23,1.51-0.19C34.68,43.25,34.45,42.59,33.88,42.23"/>
		<path class="st23" d="M16.59,43.77c-0.23,0.14-0.6,0.03-0.91-0.41c-0.31-0.44-0.31-0.94-0.09-1.07c0.23-0.14,0.69,0.08,1,0.52
			C16.87,43.25,16.82,43.63,16.59,43.77 M17.7,44.63c-0.48-0.24-0.64-0.37-0.74-0.54c0.31-0.09,0.91-0.33,0.65-0.78
			c0,0-0.54,0.52-0.93,0.48c0.55-0.36,0.75-0.99,0.45-1.41c-0.29-0.44-1-0.49-1.57-0.14c-0.57,0.36-0.8,1.02-0.52,1.46
			c0.31,0.43,0.97,0.52,1.53,0.16c-0.22,0.37-0.69,0.5-0.9,0.58c0,0,0.33,0.56,0.98-0.15c0.29,0.43,0.78,0.55,1.19,0.87
			c-0.11-0.03-0.24-0.04-0.38-0.03c-0.34,0-0.66,0.16-0.86,0.38c0.17,0.19,0.48,0.33,0.83,0.3c0.27-0.02,0.54-0.13,0.75-0.3
			c0.14,0.2,0.26,0.45,0.33,0.8l0.6,0.03C19.02,45.84,18.44,44.98,17.7,44.63"/>
		<path class="st23" d="M21.24,25.52c0-0.25,0.28-0.52,0.83-0.55c0.57,0,1.03,0.28,1.03,0.52c-0.03,0.28-0.46,0.5-1,0.52
			C21.53,26.04,21.21,25.8,21.24,25.52 M22.18,26.7c0.54,0,0.97-0.55,0.94-1.21c0-0.66-0.46-1.18-1.03-1.18
			c-0.52,0-0.93,0.5-0.94,1.12c-0.2-0.37-0.05-0.81-0.03-1.01c0,0-0.66-0.02-0.4,0.89c-0.51,0.02-0.87,0.35-1.37,0.51
			c0.09-0.08,0.17-0.18,0.23-0.29c0.17-0.27,0.2-0.6,0.11-0.91c-0.29,0.05-0.54,0.22-0.69,0.5c-0.15,0.26-0.19,0.54-0.14,0.79
			c-0.25,0.01-0.53-0.03-0.88-0.16l-0.34,0.47c0.48,0.16,1.54,0.16,2.25-0.25c0.45-0.25,0.66-0.31,0.84-0.32
			c-0.07,0.3-0.17,0.93,0.36,0.95c0,0-0.17-0.7,0.06-1.01C21.19,26.21,21.63,26.7,22.18,26.7"/>
		<path class="st23" d="M24.2,46.17c-0.06,0.27-0.43,0.47-0.97,0.36c-0.54-0.11-0.91-0.47-0.86-0.72c0.06-0.25,0.54-0.38,1.11-0.3
			C24.02,45.62,24.25,45.92,24.2,46.17 M25.6,46.06c-0.51,0.14-0.72,0.15-0.91,0.1c0.15-0.27,0.39-0.83-0.15-0.98
			c0,0,0.02,0.68-0.27,0.94c0.09-0.62-0.22-1.17-0.73-1.3c-0.54-0.11-1.08,0.33-1.23,0.99c-0.11,0.63,0.2,1.24,0.74,1.38
			c0.52,0.11,1.05-0.3,1.19-0.9c0.1,0.4-0.14,0.78-0.22,0.98c0,0,0.65,0.19,0.59-0.75c0.52,0.1,0.95-0.14,1.48-0.2
			c-0.11,0.05-0.21,0.12-0.3,0.21c-0.2,0.25-0.32,0.58-0.32,0.88c0.28,0,0.57-0.11,0.8-0.36c0.2-0.19,0.31-0.46,0.32-0.72
			c0.25,0.04,0.52,0.14,0.82,0.33l0.46-0.38C27.45,46,26.39,45.81,25.6,46.06"/>
		<path class="st23" d="M22.2,45.59c-0.14-0.03-0.37-0.3-0.2-0.52l-0.09-0.05c0,0-0.28,0.25-0.14,0.49c0,0-0.46,0-0.49,0.05
			c-0.03,0.08,0.43,0.28,0.43,0.28c-0.23,0.16-0.08,0.49-0.08,0.49h0.08c-0.06-0.27,0.26-0.44,0.43-0.41
			C22.2,45.95,22.28,45.62,22.2,45.59"/>
		<path class="st25" d="M155.58,45.98h-1.87v-2.26h1.48h0.39c0.64,0,1.16,0.51,1.16,1.13C156.73,45.47,156.21,45.98,155.58,45.98
			 M153.7,39.33h1.48c0.64,0,1.16,0.51,1.16,1.13c0,0.62-0.52,1.13-1.16,1.13h-1.48V39.33z M158.91,40.45
			c0-2.03-1.67-3.69-3.72-3.69h-4.48v11.79h4.87c2.05,0,3.72-1.66,3.72-3.7c0-0.91-0.34-1.79-0.96-2.46
			C158.71,41.81,158.91,41.14,158.91,40.45"/>
		<path class="st25" d="M165.72,45.67c-1.52,0-2.75-1.33-2.75-2.97c0-1.63,1.23-2.96,2.75-2.96c1.52,0,2.75,1.33,2.75,2.96
			C168.47,44.34,167.24,45.67,165.72,45.67 M165.72,36.54c-3.28,0-5.96,2.77-5.96,6.16c0,3.41,2.67,6.17,5.96,6.17
			c3.28,0,5.95-2.76,5.95-6.17C171.68,39.31,169.01,36.54,165.72,36.54"/>
		<path class="st25" d="M179,44.52h1.4v0.65c-0.52,0.33-1.14,0.5-1.76,0.5c-1.74,0-3.15-1.33-3.15-2.97c0-1.63,1.41-2.96,3.15-2.96
			c0.82,0,1.61,0.3,2.2,0.84l0.31,0.28l2.16-2.36l-0.31-0.28c-1.19-1.08-2.73-1.68-4.36-1.68c-3.5,0-6.36,2.77-6.36,6.16
			c0,3.41,2.85,6.17,6.36,6.17c0.6,0,1.19-0.08,1.76-0.24v0.02h3.21v-7.34H179V44.52z"/>
		<polygon class="st25" points="200.04,40.22 200.04,48.66 203.84,48.66 203.84,40.22 207.43,40.22 207.43,36.6 196.44,36.6 
			196.44,40.22 		"/>
		<polygon class="st25" points="224.26,53.71 216.99,34.37 210.46,34.37 205.11,48.63 209.07,48.63 213.71,36.9 220.3,53.71 		"/>
		<path class="st25" d="M190.27,45.67c-1.52,0-2.75-1.33-2.75-2.97c0-1.63,1.23-2.96,2.75-2.96c1.51,0,2.75,1.33,2.75,2.96
			C193.02,44.34,191.79,45.67,190.27,45.67 M195.52,39.8l-0.01-0.01c-1.01-1.93-2.98-3.24-5.24-3.24c-3.28,0-5.95,2.77-5.95,6.16
			c0,3.41,2.67,6.17,5.95,6.17c3.28,0,5.96-2.76,5.96-6.17C196.23,41.66,195.97,40.67,195.52,39.8"/>
		<polygon class="st26" points="218.65,28.11 222.21,26.65 217.47,24.95 214.43,16.82 211.28,22.81 204.85,21.49 209.39,26.4 
			207.17,32.35 215.16,29.48 220.99,34.37 		"/>
		<polygon class="st26" points="205.36,28.43 206.82,27.49 205.07,27.12 204.57,25.38 203.87,26.86 201.23,26.3 203.29,28.44 
			202.66,30.16 204.52,28.97 205.96,30.13 		"/>
		<rect x="139.01" y="22.55" class="st27" width="0.69" height="37.48"/>
		<rect x="51.78" y="22.55" class="st27" width="0.69" height="37.48"/>
		<path class="st28" d="M63.83,37.55v-12.1h3.05v12.07c0,2.16,0.88,3.24,2.64,3.24c1.76,0,2.64-1.08,2.64-3.24V25.46h3.07v12.1
			c0,1.86-0.52,3.34-1.55,4.43c-1.03,1.09-2.41,1.63-4.14,1.63c-1.76,0-3.15-0.54-4.18-1.61C64.34,40.93,63.83,39.45,63.83,37.55"/>
		<path class="st28" d="M79.71,43.31h-3.07l4.68-17.85h3.32l4.71,17.85h-3.07l-1.11-4.6h-4.38L79.71,43.31z M82.45,31.34l-1.16,4.8
			h3.4l-1.13-4.8l-0.53-2.77h-0.08C82.79,29.63,82.62,30.55,82.45,31.34"/>
		<polygon class="st28" points="99.89,43.31 91.08,43.31 91.08,25.46 99.59,25.46 99.59,28.17 94.15,28.17 94.15,32.95 98.53,32.95 
			98.53,35.66 94.15,35.66 94.15,40.59 99.89,40.59 		"/>
		<path class="st28" d="M108.98,25.15c1.78,0,3.23,0.49,4.35,1.48l-1.28,2.64c-0.3-0.35-0.74-0.65-1.31-0.88
			c-0.57-0.23-1.12-0.35-1.66-0.35c-1.49,0-2.67,0.59-3.52,1.76c-0.84,1.19-1.26,2.67-1.26,4.43c0,1.81,0.43,3.34,1.28,4.6
			c0.87,1.26,2.02,1.89,3.45,1.89c1.14,0,2.25-0.44,3.32-1.31l1.26,2.59c-1.29,1.07-2.89,1.61-4.81,1.61
			c-2.37,0-4.24-0.86-5.61-2.59c-1.36-1.73-2.04-3.95-2.04-6.66c0-2.7,0.7-4.91,2.09-6.64C104.65,26.01,106.56,25.15,108.98,25.15"
			/>
		<path class="st28" d="M120.55,43.31h-4.96V25.46h4.96c2.23,0,3.98,0.79,5.26,2.36c1.29,1.58,1.94,3.76,1.94,6.54
			c0,2.8-0.65,5-1.94,6.59C124.54,42.52,122.78,43.31,120.55,43.31 M118.66,28.2v12.37h1.76c1.32,0,2.35-0.54,3.07-1.61
			c0.72-1.07,1.08-2.61,1.08-4.6c0-1.96-0.36-3.48-1.09-4.55c-0.73-1.07-1.75-1.61-3.06-1.61H118.66z"/>
		<path class="st28" d="M66.03,46.47c0.76,0,1.38,0.21,1.86,0.63l-0.55,1.13c-0.13-0.15-0.32-0.28-0.56-0.38
			c-0.24-0.1-0.48-0.15-0.71-0.15c-0.64,0-1.14,0.25-1.5,0.75c-0.36,0.51-0.54,1.14-0.54,1.89c0,0.77,0.18,1.43,0.55,1.96
			c0.37,0.54,0.86,0.81,1.47,0.81c0.49,0,0.96-0.19,1.42-0.56l0.54,1.11c-0.55,0.46-1.24,0.69-2.05,0.69c-1.01,0-1.81-0.37-2.4-1.11
			c-0.58-0.74-0.87-1.69-0.87-2.85c0-1.15,0.3-2.1,0.89-2.84C64.18,46.84,65,46.47,66.03,46.47"/>
		<path class="st28" d="M68.41,52.66c0-0.29,0.05-0.55,0.15-0.78c0.1-0.23,0.23-0.4,0.38-0.54c0.15-0.13,0.34-0.24,0.56-0.32
			c0.22-0.08,0.43-0.14,0.63-0.17c0.2-0.03,0.42-0.04,0.65-0.04h0.19V50.7c0-0.66-0.26-0.99-0.76-0.99c-0.37,0-0.76,0.12-1.16,0.38
			l-0.34-0.98c0.18-0.14,0.43-0.25,0.74-0.34c0.32-0.09,0.62-0.14,0.92-0.14c0.61,0,1.08,0.19,1.4,0.56
			c0.33,0.38,0.49,0.92,0.49,1.62v3.43h-1.14v-0.35l0.02-0.41h-0.02c-0.14,0.25-0.33,0.46-0.56,0.61c-0.23,0.16-0.48,0.24-0.75,0.24
			c-0.41,0-0.75-0.15-1.01-0.45C68.55,53.57,68.41,53.17,68.41,52.66 M69.6,52.56c0,0.21,0.05,0.39,0.15,0.52
			c0.1,0.13,0.24,0.2,0.41,0.2c0.26,0,0.47-0.13,0.61-0.38c0.14-0.25,0.22-0.53,0.22-0.84v-0.41h-0.19
			C69.99,51.66,69.6,51.96,69.6,52.56"/>
		<path class="st28" d="M73.56,52.22v-2.34H73v-1.05h0.59v-1.57h1.25v1.57h0.91v1.05h-0.91v2.19c0,0.39,0.07,0.65,0.2,0.8
			c0.13,0.15,0.33,0.22,0.59,0.22c0.11,0,0.18,0,0.2-0.01v1.17c-0.13,0.02-0.25,0.03-0.38,0.03c-0.33,0-0.64-0.07-0.95-0.2
			C73.88,53.78,73.56,53.16,73.56,52.22"/>
		<path class="st28" d="M76.32,52.66c0-0.29,0.05-0.55,0.15-0.78c0.1-0.23,0.23-0.4,0.38-0.54c0.15-0.13,0.34-0.24,0.56-0.32
			c0.22-0.08,0.43-0.14,0.63-0.17c0.2-0.03,0.42-0.04,0.65-0.04h0.19V50.7c0-0.66-0.26-0.99-0.76-0.99c-0.37,0-0.76,0.12-1.16,0.38
			l-0.34-0.98c0.18-0.14,0.43-0.25,0.74-0.34c0.32-0.09,0.62-0.14,0.92-0.14c0.61,0,1.08,0.19,1.4,0.56
			c0.33,0.38,0.49,0.92,0.49,1.62v3.43h-1.14v-0.35l0.02-0.41h-0.02c-0.14,0.25-0.33,0.46-0.56,0.61c-0.23,0.16-0.48,0.24-0.75,0.24
			c-0.41,0-0.75-0.15-1.01-0.45C76.46,53.57,76.32,53.17,76.32,52.66 M77.51,52.56c0,0.21,0.05,0.39,0.15,0.52
			c0.1,0.13,0.24,0.2,0.41,0.2c0.26,0,0.47-0.13,0.61-0.38c0.14-0.25,0.22-0.53,0.22-0.84v-0.41H78.7
			C77.9,51.66,77.51,51.96,77.51,52.56"/>
		<path class="st28" d="M80.92,53.76l0.49-0.96c0.39,0.31,0.76,0.46,1.11,0.46c0.18,0,0.32-0.05,0.43-0.15
			c0.11-0.1,0.16-0.22,0.16-0.38c0-0.14-0.05-0.27-0.15-0.39c-0.1-0.12-0.22-0.21-0.37-0.29c-0.15-0.08-0.31-0.17-0.48-0.28
			c-0.17-0.11-0.33-0.22-0.48-0.34c-0.15-0.11-0.27-0.28-0.37-0.48c-0.1-0.21-0.15-0.44-0.15-0.71c0-0.5,0.16-0.9,0.48-1.19
			c0.32-0.29,0.75-0.43,1.28-0.43c0.52,0,0.97,0.14,1.35,0.41l-0.39,1.02c-0.32-0.22-0.63-0.33-0.95-0.33
			c-0.17,0-0.31,0.05-0.41,0.13c-0.1,0.09-0.16,0.22-0.16,0.38c0,0.14,0.05,0.26,0.15,0.38c0.1,0.12,0.22,0.21,0.37,0.28
			c0.15,0.08,0.31,0.16,0.48,0.27c0.17,0.1,0.33,0.21,0.48,0.33c0.15,0.11,0.27,0.28,0.37,0.48c0.1,0.21,0.15,0.44,0.15,0.71
			c0,0.49-0.16,0.9-0.47,1.21c-0.31,0.31-0.74,0.47-1.29,0.47C81.94,54.36,81.39,54.16,80.92,53.76"/>
		<path class="st28" d="M85.38,52.22v-2.34h-0.56v-1.05h0.59v-1.57h1.25v1.57h0.91v1.05h-0.91v2.19c0,0.39,0.07,0.65,0.2,0.8
			c0.13,0.15,0.33,0.22,0.59,0.22c0.11,0,0.18,0,0.2-0.01v1.17c-0.13,0.02-0.25,0.03-0.38,0.03c-0.33,0-0.64-0.07-0.95-0.2
			C85.7,53.78,85.38,53.16,85.38,52.22"/>
		<path class="st28" d="M89.76,54.23h-1.28v-5.48h1.24v0.82l-0.02,0.38h0.02c0.09-0.34,0.25-0.64,0.5-0.89
			c0.27-0.25,0.54-0.38,0.82-0.38c0.06,0,0.13,0.01,0.2,0.02v1.32C91.17,50,91.08,50,90.96,50c-0.4,0-0.7,0.2-0.9,0.59
			c-0.2,0.39-0.3,0.85-0.3,1.38V54.23z"/>
		<path class="st28" d="M92.17,53.56c-0.44-0.53-0.66-1.22-0.66-2.07c0-0.85,0.22-1.54,0.66-2.06c0.44-0.54,1.02-0.81,1.73-0.81
			c0.71,0,1.28,0.27,1.72,0.81c0.44,0.52,0.66,1.21,0.66,2.06c0,0.85-0.22,1.54-0.66,2.07c-0.44,0.53-1.02,0.79-1.72,0.79
			C93.19,54.36,92.61,54.09,92.17,53.56 M93.9,53.24c0.34,0,0.6-0.16,0.79-0.47c0.19-0.31,0.28-0.74,0.28-1.28
			c0-0.54-0.09-0.96-0.28-1.28c-0.19-0.32-0.45-0.47-0.79-0.47c-0.34,0-0.61,0.16-0.8,0.47c-0.19,0.31-0.29,0.74-0.29,1.28
			c0,0.54,0.1,0.96,0.29,1.28C93.29,53.08,93.55,53.24,93.9,53.24"/>
		<path class="st28" d="M101.51,54.23H99.4V46.6h2.06c0.63,0,1.14,0.17,1.52,0.53c0.38,0.35,0.57,0.83,0.57,1.44
			c0,0.36-0.08,0.68-0.24,0.97c-0.16,0.29-0.38,0.51-0.66,0.66v0.02c0.37,0.12,0.65,0.34,0.84,0.67c0.2,0.32,0.3,0.7,0.3,1.14
			c0,0.72-0.2,1.27-0.61,1.64S102.23,54.23,101.51,54.23 M100.71,47.76v1.97h0.81c0.21,0,0.39-0.09,0.52-0.28
			c0.13-0.19,0.19-0.43,0.19-0.71c0-0.3-0.07-0.54-0.22-0.71c-0.14-0.17-0.34-0.26-0.59-0.26H100.71z M100.71,50.81v2.26h0.77
			c0.32,0,0.57-0.1,0.73-0.3c0.17-0.2,0.25-0.47,0.25-0.82c0-0.34-0.08-0.62-0.23-0.83c-0.15-0.21-0.35-0.31-0.6-0.31H100.71z"/>
		<path class="st28" d="M105.12,53.56c-0.44-0.53-0.66-1.22-0.66-2.07c0-0.85,0.22-1.54,0.66-2.06c0.44-0.54,1.02-0.81,1.73-0.81
			c0.71,0,1.28,0.27,1.72,0.81c0.44,0.52,0.66,1.21,0.66,2.06c0,0.85-0.22,1.54-0.66,2.07c-0.44,0.53-1.02,0.79-1.72,0.79
			C106.14,54.36,105.56,54.09,105.12,53.56 M106.85,53.24c0.34,0,0.6-0.16,0.79-0.47c0.19-0.31,0.28-0.74,0.28-1.28
			c0-0.54-0.09-0.96-0.28-1.28c-0.19-0.32-0.45-0.47-0.79-0.47c-0.34,0-0.61,0.16-0.8,0.47c-0.19,0.31-0.29,0.74-0.29,1.28
			c0,0.54,0.1,0.96,0.29,1.28C106.24,53.08,106.5,53.24,106.85,53.24"/>
		<path class="st28" d="M110.31,56.09l0.3-1.05c0.32,0.21,0.7,0.32,1.14,0.32c0.77,0,1.15-0.46,1.15-1.37v-0.24l0.02-0.32h-0.02
			c-0.22,0.47-0.59,0.7-1.11,0.7c-0.62,0-1.1-0.26-1.43-0.78c-0.32-0.52-0.48-1.18-0.48-1.97c0-0.81,0.16-1.47,0.49-1.98
			c0.33-0.52,0.8-0.77,1.41-0.77c0.58,0,0.99,0.23,1.22,0.69h0.02c-0.01-0.02-0.01-0.07-0.01-0.15v-0.41h1.17v5.13
			c0,0.89-0.23,1.54-0.69,1.95c-0.47,0.43-1.02,0.64-1.65,0.64C111.28,56.48,110.77,56.35,110.31,56.09 M112.07,52.99
			c0.57,0,0.86-0.54,0.86-1.63c0-1.07-0.29-1.61-0.88-1.61c-0.58,0-0.87,0.52-0.87,1.57c0,0.52,0.08,0.93,0.23,1.23
			C111.56,52.84,111.78,52.99,112.07,52.99"/>
		<path class="st28" d="M115.74,53.56c-0.44-0.53-0.66-1.22-0.66-2.07c0-0.85,0.22-1.54,0.66-2.06c0.44-0.54,1.02-0.81,1.73-0.81
			c0.71,0,1.28,0.27,1.72,0.81c0.44,0.52,0.66,1.21,0.66,2.06c0,0.85-0.22,1.54-0.66,2.07c-0.44,0.53-1.02,0.79-1.72,0.79
			C116.76,54.36,116.18,54.09,115.74,53.56 M117.47,53.24c0.34,0,0.6-0.16,0.79-0.47c0.19-0.31,0.28-0.74,0.28-1.28
			c0-0.54-0.09-0.96-0.28-1.28c-0.19-0.32-0.45-0.47-0.79-0.47c-0.34,0-0.61,0.16-0.8,0.47c-0.19,0.31-0.29,0.74-0.29,1.28
			c0,0.54,0.1,0.96,0.29,1.28C116.86,53.08,117.12,53.24,117.47,53.24"/>
		<path class="st28" d="M120.92,52.22v-2.34h-0.56v-1.05h0.59v-1.57h1.25v1.57h0.91v1.05h-0.91v2.19c0,0.39,0.07,0.65,0.2,0.8
			c0.13,0.15,0.33,0.22,0.59,0.22c0.11,0,0.18,0,0.2-0.01v1.17c-0.13,0.02-0.25,0.03-0.38,0.03c-0.33,0-0.64-0.07-0.95-0.2
			C121.23,53.78,120.92,53.16,120.92,52.22"/>
		<path class="st28" d="M123.68,52.66c0-0.29,0.05-0.55,0.15-0.78c0.1-0.23,0.23-0.4,0.38-0.54c0.15-0.13,0.34-0.24,0.56-0.32
			c0.22-0.08,0.43-0.14,0.63-0.17c0.2-0.03,0.42-0.04,0.65-0.04h0.19V50.7c0-0.66-0.26-0.99-0.76-0.99c-0.37,0-0.76,0.13-1.16,0.38
			l-0.34-0.98c0.18-0.14,0.43-0.25,0.74-0.34c0.32-0.09,0.62-0.14,0.92-0.14c0.61,0,1.08,0.19,1.4,0.56
			c0.33,0.38,0.49,0.92,0.49,1.62v3.43h-1.14v-0.36l0.02-0.41h-0.02c-0.14,0.25-0.33,0.46-0.56,0.61c-0.23,0.16-0.48,0.24-0.75,0.24
			c-0.41,0-0.75-0.15-1.01-0.45C123.81,53.57,123.68,53.17,123.68,52.66 M124.86,52.56c0,0.21,0.05,0.39,0.15,0.52
			c0.1,0.13,0.24,0.2,0.41,0.2c0.26,0,0.47-0.13,0.61-0.38c0.14-0.25,0.22-0.53,0.22-0.84v-0.41h-0.19
			C125.26,51.66,124.86,51.96,124.86,52.56 M126.14,48.06h-1.01l0.66-1.47h1.29L126.14,48.06z"/>
	</g>
</g>
<g id="Capa_4">
</g>
</svg>
